<svg xmlns="http://www.w3.org/2000/svg" width="186.471" height="62" viewBox="0 0 186.471 62">
  <g id="alphasuite_white" data-name="alphasuite white" transform="translate(-1267.04 -3062.649)">
    <text id="AlphaSuite" transform="translate(1330.511 3104.025)" fill="#fff" font-size="25" font-family="SegoeUI-Semibold, Segoe UI" font-weight="600"><tspan x="0" y="0">AlphaSuite</tspan></text>
    <g id="Layer_2" data-name="Layer 2" transform="translate(1267.04 3062.649)">
      <g id="Layer_6" data-name="Layer 6" transform="translate(0 0)">
        <path id="Path_1" data-name="Path 1" d="M1326.254,3173.878a29.6,29.6,0,0,1-29.6,29.6h-.079a29.6,29.6,0,0,1-2.1-59.117l-1.827,3.326a26.5,26.5,0,0,0-13.071,46.45,26.4,26.4,0,0,1,17-6.355h.269a26.38,26.38,0,0,1,17.03,6.237,26.5,26.5,0,0,0-10.242-45.705l.586-3.056a29.581,29.581,0,0,1,22.036,28.6v.021h0Z" transform="translate(-1267.04 -3141.476)" fill="#fff"/>
        <path id="Path_2" data-name="Path 2" d="M1501.324,3088.507v3.429a8.83,8.83,0,0,1-8.83,8.827h-28.168a8.829,8.829,0,0,1-8.826-8.826v-3.429a8.829,8.829,0,0,1,8.826-8.826h13.829l-1.289,3.224h-12.147a6.128,6.128,0,0,0-6.128,6.119v2.379a6.129,6.129,0,0,0,6.128,6.127h27.388a6.126,6.126,0,0,0,6.125-6.125v-2.385a6.126,6.126,0,0,0-6.125-6.125h-13.349l1.067-3.223.826-2.494-2.26.19-2.726.225,2.726-5.77,1.53-3.224,1.412-3.021,1.389-2.931-.647,3.021-.653,3.051-1.193,5.568,4.572-.208-1.193,5.608h8.888a8.83,8.83,0,0,1,8.827,8.817h0Z" transform="translate(-1448.85 -3062.649)" fill="#fff"/>
        <circle id="Ellipse_1" data-name="Ellipse 1" cx="2.441" cy="2.441" r="2.441" transform="translate(17.153 24.923)" fill="#fff"/>
        <circle id="Ellipse_2" data-name="Ellipse 2" cx="2.441" cy="2.441" r="2.441" transform="translate(36.353 24.923)" fill="#fff"/>
      </g>
    </g>
  </g>
</svg>
