<svg xmlns="http://www.w3.org/2000/svg" width="28.456" height="33.394" viewBox="0 0 28.456 33.394"><path id="notification" fill="#fff" d="M25.052,18.811V14.029a9.022,9.022,0,0,0-7.518-8.887V3.5a1.5,1.5,0,1,0-3.007,0V5.143a9.022,9.022,0,0,0-7.518,8.887v4.782A4.511,4.511,0,0,0,4,23.052v3.007a1.5,1.5,0,0,0,1.5,1.5h4.722a6.015,6.015,0,0,0,11.608,0h4.722a1.5,1.5,0,0,0,1.5-1.5V23.052a4.511,4.511,0,0,0-3.007-4.24ZM10.015,14.029a6.015,6.015,0,1,1,12.029,0v4.511H10.015Zm6.015,15.037a3.007,3.007,0,0,1-2.586-1.5h5.173A3.007,3.007,0,0,1,16.029,29.066Zm9.022-4.511H7.007v-1.5a1.5,1.5,0,0,1,1.5-1.5H23.548a1.5,1.5,0,0,1,1.5,1.5Z" transform="translate(1.055 -2.601) rotate(9)"/></svg>